<?xml version="1.0" encoding="UTF-8" standalone="no"?>
<svg width="44px" height="44px" viewBox="0 0 44 44" version="1.1" xmlns="http://www.w3.org/2000/svg" xmlns:xlink="http://www.w3.org/1999/xlink" xmlns:sketch="http://www.bohemiancoding.com/sketch/ns">
    <!-- Generator: Sketch 3.4.2 (15855) - http://www.bohemiancoding.com/sketch -->
    <title>add-screenshot</title>
    <desc>Created with Sketch.</desc>
    <defs></defs>
    <g id="Page-1" stroke="none" stroke-width="1" fill="none" fill-rule="evenodd" sketch:type="MSPage">
        <g id="add-screenshot" sketch:type="MSLayerGroup" fill="#FFFFFF">
            <g id="Page-1" sketch:type="MSShapeGroup">
                <g id="Artboard-1">
                    <g id="Preview">
                        <g id="Add">
                            <g id="Plus">
                                <path d="M11,23 L33,23 L33,21 L11,21 L11,23 L11,23 L11,23 Z" id="Shape"></path>
                                <path d="M21,11 L21,33 L23,33 L23,11 L21,11 L21,11 L21,11 Z" id="Shape"></path>
                                <path d="M22,44 C34.1502645,44 44,34.1502645 44,22 C44,9.8497355 34.1502645,0 22,0 C9.8497355,0 0,9.8497355 0,22 C0,34.1502645 9.8497355,44 22,44 L22,44 L22,44 Z M22,42 C10.954305,42 2,33.045695 2,22 C2,10.954305 10.954305,2 22,2 C33.045695,2 42,10.954305 42,22 C42,33.045695 33.045695,42 22,42 L22,42 L22,42 Z" id="Shape"></path>
                            </g>
                        </g>
                    </g>
                </g>
            </g>
        </g>
    </g>
</svg>