<?xml version="1.0" encoding="UTF-8" standalone="no"?>
<svg width="781px" height="323px" viewBox="0 0 781 323" version="1.1" xmlns="http://www.w3.org/2000/svg" xmlns:xlink="http://www.w3.org/1999/xlink" xmlns:sketch="http://www.bohemiancoding.com/sketch/ns">
    <!-- Generator: Sketch 3.4.2 (15855) - http://www.bohemiancoding.com/sketch -->
    <title>Mocksy</title>
    <desc>Created with Sketch.</desc>
    <defs></defs>
    <g id="Marketing-Site" stroke="none" stroke-width="1" fill="none" fill-rule="evenodd" sketch:type="MSPage">
        <g id="Desktop-HD" sketch:type="MSArtboardGroup" transform="translate(-1049.000000, -361.000000)" fill="#FFFFFF">
            <g id="Header" sketch:type="MSLayerGroup" transform="translate(952.000000, 361.000000)">
                <path d="M748.63726,178.142984 C745.22672,179.73457 741.948861,181.26929 738.803585,182.74719 C735.65831,184.225091 732.7215,185.873494 729.993068,187.692449 C729.993068,182.841903 729.822543,178.635633 729.481489,175.073514 C729.140435,171.511394 728.685703,168.366165 728.11728,165.637733 C727.548857,162.909301 726.961495,160.503012 726.355176,158.418793 C725.748858,156.334574 725.161496,154.364069 724.593073,152.50722 C724.02465,150.65037 723.569918,148.755654 723.228864,146.823015 C722.88781,144.890376 722.717285,142.749346 722.717285,140.399863 C722.944655,139.566176 723.835171,138.296716 725.388862,136.591446 C726.942552,134.886176 728.590955,133.010407 730.33412,130.964083 C732.077285,128.917759 733.668846,126.795677 735.108852,124.597773 C736.548858,122.39987 737.26885,120.391471 737.26885,118.572516 C737.26885,117.663039 737.193061,116.583051 737.041482,115.332519 C736.889902,114.081988 736.359382,112.888317 735.449904,111.75147 C734.540427,110.614623 733.100443,109.648318 731.129909,108.852526 C729.159374,108.056733 726.355195,107.658843 722.717285,107.658843 C720.519382,107.658843 718.52993,107.980944 716.74887,108.625157 C714.96781,109.26937 713.338354,110.103046 711.860454,111.126208 C710.382553,112.14937 709.037305,113.305146 707.824668,114.593573 C706.612032,115.881999 705.513096,117.2083 704.527829,118.572516 C699.677283,124.635698 695.736274,129.69459 692.704683,133.749343 C689.673092,137.804097 687.096278,141.233533 684.974164,144.037754 C682.85205,146.841976 681.014176,149.267213 679.460485,151.313537 C677.906795,153.359861 676.182603,155.387207 674.287859,157.395636 C672.393114,159.404065 670.119455,161.620883 667.466813,164.046156 C666.215497,165.190217 664.787109,166.469187 663.181639,167.883078 C663.181639,167.883078 662.08395,167.968257 658.320555,171.255534 C654.55716,174.542811 654.646009,174.618777 653.085774,175.982986 C651.52554,177.347196 652.279242,176.937452 651.870204,177.411796 C651.498554,177.754971 651.126903,178.112384 650.75525,178.484037 C649.933914,179.305373 649.182123,180.204929 648.499867,181.182719 C648.173879,181.534791 647.845674,181.885755 647.515253,182.235612 C645.582614,184.281936 643.668951,186.138758 641.774206,187.806133 C639.879462,189.473508 638.041587,190.818756 636.260527,191.841918 C634.479468,192.86508 632.831065,193.376654 631.315269,193.376654 C628.511047,193.376654 626.445807,192.789292 625.119486,191.61455 C623.793164,190.439809 623.130014,188.488251 623.130014,185.759819 C623.130014,182.576648 623.8879,179.393525 625.403696,176.210355 C626.919491,173.027184 628.814207,169.825114 631.087901,166.604048 C633.361594,163.382983 635.824725,160.180913 638.477367,156.997742 C641.13001,153.814571 643.59314,150.631448 645.866834,147.448277 C648.140527,144.265107 650.035243,141.100931 651.551039,137.955655 C653.066834,134.810379 653.824721,131.684098 653.824721,128.576717 C653.824721,125.393546 653.407883,122.513578 652.574196,119.936725 C651.740508,117.359873 650.603679,115.162002 649.163673,113.343048 C647.723667,111.524093 646.03737,110.122003 644.10473,109.136736 C642.172091,108.151469 640.144745,107.658843 638.022631,107.658843 C633.854193,107.658843 630.064761,108.246204 626.654221,109.420946 C623.243681,110.595688 620.363713,112.016725 618.014229,113.6841 C616.498434,114.745157 614.433193,116.753556 611.818446,119.709357 C609.203699,122.665158 606.32373,126.037753 603.178454,129.827242 C600.033179,133.616731 596.831108,137.595635 593.572148,141.764072 C590.313187,145.93251 587.319536,149.759837 584.591104,153.246167 L581.862686,151.540905 L595.391094,131.305135 C596.073202,130.092499 597.456344,127.534632 599.540563,123.631459 C601.624782,119.728285 604.031071,114.934653 606.759504,109.25042 C609.487936,103.566186 612.33001,97.1999406 615.285811,90.1514911 C618.241612,83.1030417 620.970003,75.8462792 623.471066,68.380986 C625.972129,60.9156928 628.037369,53.4694587 629.66685,46.0420604 C631.29633,38.6146621 632.111058,31.6800014 632.111058,25.2378702 C632.111058,21.5999608 631.807903,18.2273662 631.201585,15.1199853 C630.595267,12.0126043 629.553173,9.34105471 628.075272,7.10525624 C626.597372,4.86945776 624.60792,3.126319 622.106857,1.87578765 C619.605794,0.625256296 616.422671,0 612.557393,0 C607.631057,0 603.083738,1.02314667 598.915301,3.06947069 C594.746863,5.11579472 590.919536,7.90102732 587.433207,11.425252 C583.946877,14.9494767 580.801648,19.0610106 577.997426,23.7599769 C575.193204,28.4589431 572.673232,33.404152 570.437434,38.5957519 C568.201635,43.7873517 566.23113,49.130451 564.52586,54.62521 C562.82059,60.1199689 561.342712,65.4062267 560.092181,70.4841419 C558.841649,75.5620571 557.799555,80.3177943 556.965868,84.7514964 C556.13218,89.1851985 555.450082,92.9556834 554.919554,96.0630643 C553.479548,104.854679 552.247983,113.911421 551.224821,123.233564 C550.201659,132.555707 549.386931,141.47982 548.780613,150.00617 C548.374425,155.718183 548.036269,161.11551 547.766141,166.198223 C546.111103,168.044035 544.32716,169.94141 542.414303,171.890359 C538.397445,175.983007 534.172228,179.734545 529.738526,183.145085 C525.304824,186.555625 520.890135,189.378752 516.494328,191.61455 C512.098521,193.850349 508.081723,194.968231 504.443814,194.968231 C500.730115,194.968231 497.698569,194.153503 495.349086,192.524023 C492.999603,190.894543 491.142781,188.848249 489.778565,186.385082 C488.414349,183.921914 487.485938,181.21247 486.993304,178.256668 C486.500671,175.300867 486.254358,172.458793 486.254358,169.730361 C486.254358,167.911406 486.330146,165.656694 486.481726,162.966157 C486.633305,160.27562 486.974354,157.452493 487.504883,154.496692 C488.035411,151.54089 488.755403,148.566186 489.664881,145.57249 C490.574358,142.578794 491.805923,139.888297 493.359614,137.500919 C494.913304,135.113541 496.789073,133.18093 498.986977,131.70303 C501.18488,130.225129 503.837483,129.48619 506.944864,129.48619 C508.23329,129.48619 509.066965,130.092499 509.445914,131.305135 C509.824863,132.517772 510.014335,134.033545 510.014335,135.852499 C510.014335,137.065136 509.957493,138.429331 509.843808,139.945127 C509.730124,141.460922 509.673282,142.900907 509.673282,144.265123 C509.673282,147.599873 510.22275,150.214581 511.321702,152.109326 C512.420654,154.00407 514.751154,154.951428 518.313274,154.951428 C520.662757,154.951428 522.784839,154.345119 524.679583,153.132482 C526.574328,151.919846 528.184837,150.309337 529.511158,148.300908 C530.837479,146.292479 531.841678,144.037767 532.523786,141.536704 C533.205894,139.035642 533.546943,136.496722 533.546943,133.91987 C533.546943,130.20617 532.808004,126.73884 531.330103,123.517774 C529.852203,120.296709 527.805909,117.511476 525.191162,115.161993 C522.576415,112.81251 519.431186,110.974635 515.755382,109.648314 C512.079577,108.321993 508.081726,107.658843 503.761709,107.658843 C498.683794,107.658843 494.022792,108.587253 489.778565,110.444103 C485.534337,112.300953 481.688064,114.801978 478.239629,117.947254 C474.791194,121.092529 471.759648,124.749331 469.144901,128.917769 C468.151363,130.501669 467.218015,132.115652 466.344852,133.759724 C460.770148,128.046167 455.654415,123.745161 450.159656,119.993567 C444.664897,116.241973 438.77233,113.248322 432.481779,111.012523 C426.191227,108.776725 419.446038,107.658843 412.246009,107.658843 C403.833343,107.658843 396.254479,109.193563 389.509189,112.263049 C382.763898,115.332535 377.060803,119.538804 372.399732,124.881984 C367.73866,130.225163 364.157647,136.51562 361.656584,143.753544 C359.155522,150.991468 357.905009,158.778751 357.905009,167.115627 C357.905009,168.848682 357.962285,170.575539 358.076836,172.2962 C357.452063,173.087912 356.826367,173.862104 356.199748,174.618777 C354.456583,176.740891 352.637655,178.806132 350.742911,180.814561 C348.848166,182.82299 346.934503,184.604023 345.001864,186.157713 C343.069224,187.711404 341.136614,188.961916 339.203975,189.909289 C337.271335,190.856661 335.433461,191.33034 333.690296,191.33034 C330.582915,191.33034 328.21452,190.32614 326.58504,188.317711 C324.955559,186.309282 324.140831,183.069318 324.140831,178.597721 C324.140831,175.035601 324.576616,170.810384 325.448199,165.921944 C326.319781,161.033503 327.399769,155.709351 328.688195,149.949328 C329.976622,144.189304 331.359764,138.088319 332.837665,131.646188 C334.315566,125.204056 335.698708,118.629392 336.987135,111.921996 C338.275561,105.214601 339.355549,98.4315174 340.227132,91.5725424 C341.098714,84.7135674 341.534499,78.0252198 341.534499,71.5072988 C341.534499,64.5346391 340.890295,57.9220801 339.601869,51.6694234 C338.313443,45.4167666 336.456621,39.9599844 334.031348,35.298913 C331.606075,30.6378416 328.593477,26.9431453 324.993462,24.2147133 C321.393448,21.4862812 317.281914,20.1220857 312.658737,20.1220857 C305.989237,20.1220857 299.547202,21.7894358 293.33244,25.1241861 C287.117678,28.4589363 281.319847,33.2525679 275.938773,39.5052247 C270.557699,45.7578814 265.707226,53.3556928 261.387208,62.2988867 C257.067191,71.2420806 253.429336,81.32197 250.473535,92.5388572 L248.086169,92.6525413 C248.768277,87.3472568 249.41248,82.4209951 250.018798,77.8736084 C250.246168,75.9788639 250.492481,74.0652007 250.757745,72.1325613 C251.023009,70.199922 251.250375,68.3999417 251.43985,66.7325666 C251.629324,65.0651914 251.780901,63.5873129 251.894586,62.2988867 C252.008271,61.0104605 252.065112,60.0631024 252.065112,59.4567842 C252.065112,52.7872837 251.47775,47.0273469 250.303009,42.176801 C249.128267,37.3262552 247.479864,33.3094572 245.35775,30.1262864 C243.235636,26.9431157 240.696717,24.5936678 237.740916,23.0778723 C234.785114,21.5620767 231.564097,20.8041903 228.077767,20.8041903 C223.378801,20.8041903 218.642011,22.0925972 213.867255,24.6694497 C209.092499,27.2463021 204.374656,30.884157 199.713584,35.5831232 C195.052513,40.2820895 190.524141,45.9093962 186.128334,52.4652121 C181.732527,59.0210279 177.583099,66.3346319 173.679925,74.4062433 C169.776752,82.4778548 166.176791,91.1556543 162.879936,100.439902 C159.58308,109.72415 156.722059,119.406149 154.296786,129.48619 C155.433633,124.029326 156.608357,118.155706 157.820993,111.865154 C159.03363,105.574603 160.151512,99.3030924 161.174674,93.0504357 C162.197836,86.7977789 163.050459,80.8294234 163.732567,75.14519 C164.414675,69.4609566 164.755723,64.4968005 164.755723,60.2525729 C164.755723,54.719919 164.395727,49.6799743 163.675725,45.1325876 C162.955722,40.5852009 161.686262,36.701033 159.867307,33.4799674 C158.048352,30.2589018 155.585222,27.7578766 152.477841,25.9768168 C149.37046,24.195757 145.467345,23.3052405 140.768378,23.3052405 C137.130469,23.3052405 133.32209,24.0631269 129.343126,25.5789225 C125.364163,27.094718 121.461048,29.6525847 117.633664,33.2525992 C113.80628,36.8526137 110.168425,41.6651925 106.719991,47.6904799 C103.271556,53.7157673 100.183168,61.1998957 97.4547364,70.1430896 C97.1515773,70.4462487 97,70.8251919 97,71.2799306 C97,72.1136181 97.113683,73.042029 97.3410523,74.065191 C97.5684216,75.088353 97.852629,76.0546582 98.193683,76.9641356 C98.5347371,77.8736129 98.9136803,78.6504465 99.330524,79.2946596 C99.7473678,79.9388727 100.145258,80.2609745 100.524207,80.2609745 C101.736844,80.2609745 102.835779,80.0146614 103.821046,79.5220278 C104.806313,79.0293942 105.526305,78.2146663 105.981044,77.0778197 C108.406317,73.8188592 111.058919,70.7683663 113.938931,67.9262496 C116.818942,65.0841329 119.698911,62.6020549 122.578922,60.4799411 C125.458934,58.3578273 128.206272,56.67153 130.82102,55.4209987 C133.435767,54.1704673 135.652585,53.545211 137.47154,53.545211 C138.608386,53.545211 139.461008,53.8862599 140.029432,54.5683679 C140.597855,55.2504759 140.995745,56.0652038 141.223115,57.012576 C141.450484,57.9599483 141.564167,58.9641478 141.564167,60.0252047 L141.564167,62.639939 C140.957849,70.522076 140.389434,77.9114686 139.858906,84.8083385 C139.328377,91.7052083 138.741015,98.393556 138.096802,104.873582 C137.452589,111.353608 136.71365,117.795643 135.879962,124.199879 C135.046275,130.604115 134.061022,137.216674 132.924176,144.037754 C131.787329,150.858835 130.423133,158.077703 128.831548,165.694575 C127.239963,173.311448 125.383141,181.553463 123.261027,190.420867 C122.654709,193.073509 122.199977,195.707165 121.896818,198.321912 C121.593659,200.936659 121.442081,203.797681 121.442081,206.905062 C121.442081,208.496647 121.858919,209.917684 122.692607,211.168215 C123.526294,212.418747 124.663124,213.479788 126.10313,214.35137 C127.543135,215.222953 129.191538,215.867156 131.048388,216.284 C132.905237,216.700844 134.818901,216.909262 136.789435,216.909262 C138.45681,216.909262 140.199949,216.738738 142.018904,216.397684 C143.837858,216.05663 145.543103,215.469268 147.134688,214.63558 C148.726273,213.801893 150.090469,212.665063 151.227316,211.225057 C152.364162,209.785052 153.084154,207.92823 153.387314,205.654537 C154.372581,198.378718 155.850459,190.591435 157.820993,182.292454 C159.791528,173.993473 162.065187,165.505145 164.642039,156.827216 C167.218892,148.149286 170.042019,139.471486 173.111505,130.793557 C176.180991,122.115627 179.364114,113.797824 182.660969,105.839897 C185.957825,97.8819701 189.273578,90.4736304 192.608328,83.6146554 C195.943078,76.7556804 199.183043,70.7873249 202.328318,65.7094097 C205.473594,60.6314945 208.410404,56.6525908 211.138836,53.7725792 C213.867268,50.8925676 216.292505,49.4525834 218.414619,49.4525834 C220.991471,49.4525834 223.056712,50.1346812 224.610402,51.4988972 C226.164092,52.8631132 227.357764,54.8336179 228.191451,57.4104704 C229.025139,59.9873229 229.555659,63.1325515 229.783029,66.8462507 C230.010398,70.5599498 230.124081,74.7662195 230.124081,79.4651858 C230.124081,86.2862659 229.669349,93.7514471 228.759872,101.860953 C227.850394,109.97046 226.694618,118.17458 225.292507,126.473561 C223.890396,134.772542 222.374623,142.919821 220.745143,150.915642 C219.115662,158.911464 217.59989,166.262962 216.197779,172.970358 C214.795668,179.677753 213.639891,185.43769 212.730414,190.250341 C211.820936,195.062992 211.366204,198.454534 211.366204,200.425068 C211.366204,203.380869 211.7262,205.881895 212.446203,207.928219 C213.166206,209.974543 214.113564,211.66084 215.288306,212.987161 C216.463047,214.313482 217.827243,215.279787 219.380933,215.886106 C220.934624,216.492424 222.507238,216.795578 224.098824,216.795578 C225.917778,216.795578 227.736706,216.58716 229.55566,216.170316 C231.374615,215.753472 233.098807,215.090321 234.728287,214.180844 C236.357767,213.271367 237.797751,212.077696 239.048283,210.599795 C240.298814,209.121894 241.227225,207.321914 241.833543,205.1998 C243.197759,197.620822 244.675638,189.587226 246.267223,181.098771 C247.858808,172.610316 249.564053,164.008305 251.383008,155.29248 C253.201962,146.576656 255.172467,137.917803 257.294581,129.315664 C259.416695,120.713524 261.709301,112.490456 264.172469,104.646214 C266.635637,96.8019718 269.250345,89.507315 272.016672,82.7620247 C274.782999,76.0167343 277.757703,70.1810089 280.940873,65.2546733 C284.124044,60.3283377 287.496639,56.4631169 291.058758,53.6588951 C294.620878,50.8546733 298.41031,49.4525834 302.427168,49.4525834 C304.549282,49.4525834 306.254527,49.9831039 307.542953,51.0441608 C308.831379,52.1052177 309.816631,53.6020434 310.498739,55.5346828 C311.180847,57.4673221 311.635579,59.81677 311.862949,62.5830969 C312.090318,65.3494239 312.204001,68.437811 312.204001,71.8483511 C312.204001,77.4567947 311.825058,83.3114673 311.06716,89.4125445 C310.309262,95.5136217 309.361904,101.690396 308.225057,107.943053 C307.088211,114.19571 305.837698,120.46722 304.473482,126.757771 C303.109266,133.048323 301.801912,139.225097 300.551381,145.28828 C299.300849,151.351462 298.182967,157.244029 297.1977,162.966157 C296.212433,168.688285 295.568229,174.088226 295.26507,179.166141 C295.18928,179.848249 295.132439,180.530347 295.094544,181.212455 C295.056649,181.894563 295.037702,182.538767 295.037702,183.145085 C295.037702,188.601949 295.947166,193.433475 297.76612,197.639808 C299.585075,201.84614 302.010311,205.370312 305.041903,208.212429 C308.073494,211.054545 311.540824,213.195575 315.443998,214.63558 C319.347171,216.075586 323.345022,216.795578 327.43767,216.795578 C331.681898,216.795578 335.945009,216.151375 340.227132,214.862949 C344.509254,213.574522 348.734471,211.471388 352.902909,208.553481 C356.919966,205.741541 360.866582,202.137822 364.742866,197.742223 C365.340534,198.85644 365.97914,199.940194 366.658685,200.993488 C369.690276,205.692455 373.574444,209.500834 378.311305,212.41874 C383.048166,215.336647 388.751261,216.795578 395.420762,216.795578 C400.043938,216.795578 404.401785,215.999798 408.494433,214.408212 C412.587082,212.816627 416.357566,210.656651 419.806001,207.928219 C423.254436,205.199786 426.323876,201.978769 429.014413,198.26507 C431.704951,194.551371 433.97861,190.572467 435.835459,186.32824 C437.692309,182.084012 439.113346,177.688271 440.098613,173.140884 C441.08388,168.593497 441.576506,164.084073 441.576506,159.612476 C441.576506,155.140879 441.027039,150.460931 439.928087,145.57249 C438.829135,140.684049 437.180732,136.041995 434.982829,131.646188 L435.892302,130.395662 C438.620734,132.214617 441.879645,134.469329 445.669134,137.159866 C449.458623,139.850404 453.304897,142.711425 457.20807,145.743016 C458.292778,146.585507 459.361384,147.433848 460.413892,148.28804 C459.648978,150.859394 459.016162,153.459463 458.515437,156.088269 C457.60596,160.863025 457.151228,165.448238 457.151228,169.844045 C457.151228,175.983017 458.060692,181.894531 459.879647,187.578765 C461.698601,193.262998 464.389098,198.265048 467.951218,202.585066 C471.513337,206.905083 475.928026,210.353466 481.195415,212.930319 C486.462805,215.507171 492.582738,216.795578 499.555397,216.795578 C503.572256,216.795578 507.532212,216.170322 511.435386,214.919791 C515.338559,213.669259 519.090097,212.039804 522.690112,210.031374 C526.290126,208.022945 529.738509,205.730339 533.035365,203.153486 C536.33222,200.576634 539.382713,197.924031 542.186935,195.195599 C543.806015,193.632349 545.397672,192.016555 546.961907,190.348211 C546.961667,194.210355 547.094297,197.564002 547.359561,200.709278 C547.624826,203.854554 548.250082,206.620839 549.235349,209.008217 C550.220616,211.395596 551.6606,213.290312 553.555345,214.692422 C555.450089,216.094533 558.026903,216.795578 561.285864,216.795578 C563.711137,216.795578 565.852166,216.208216 567.709015,215.033475 C569.565865,213.858733 571.365845,211.755598 573.10901,208.724007 L606.532135,150.063012 C608.957408,145.894574 611.193173,142.976711 613.239497,141.309336 C615.285821,139.641961 616.953171,138.808286 618.241598,138.808286 C619.302654,138.808286 620.117382,139.300912 620.685806,140.286179 C621.254229,141.271446 621.538436,142.559853 621.538436,144.151439 L621.538436,145.743016 C621.538436,145.743016 620.4595,148.3535 619.703023,149.208256 C618.946545,150.063012 618.022204,151.010374 616.885357,152.109326 C615.74851,153.208277 614.603713,154.212475 613.239497,155.576691 C604.350357,162.169837 603.197412,159.87772 601.075299,163.705104 C598.953185,167.532488 598.593373,167.342995 597.039513,173.140884 C595.485653,178.938773 595.391094,183.429295 595.391094,186.32824 C595.391094,189.227184 595.959514,191.747173 595.959514,193.490338 C595.959514,196.446139 596.31951,199.30716 597.039513,202.073487 C597.759516,204.839814 599.104764,207.321892 601.075299,209.519796 C603.045833,211.7177 605.755277,213.479785 609.203712,214.806107 C612.652147,216.132428 617.104729,216.795578 622.561593,216.795578 C626.730031,216.795578 631.068931,216.189269 635.578423,214.976633 C640.087915,213.763996 644.445762,212.077699 648.652094,209.91769 C652.858427,207.757682 656.761542,205.218762 660.361557,202.300856 C660.952541,201.821847 661.526674,201.336202 662.083956,200.843919 C662.634711,202.60112 663.367943,204.204655 664.283658,205.654537 C666.102613,208.534548 668.471008,210.865049 671.388914,212.646109 C674.306821,214.427168 677.698362,215.734523 681.563641,216.56821 C685.42892,217.401898 689.597295,217.818735 694.068892,217.818735 C700.283654,217.818735 706.858319,217.11769 713.793083,215.715579 C720.727848,214.313468 727.58672,212.399805 734.369906,209.974532 C741.153091,207.549259 747.63302,204.74508 753.809887,201.561909 C754.310661,201.303841 754.806577,201.04428 755.297636,200.783224 C756.727959,203.710841 758.486766,206.263016 760.574091,208.439797 C763.226733,211.206124 766.277226,213.328206 769.725661,214.806107 C773.174096,216.284007 776.717215,217.022947 780.355124,217.022947 C784.523562,217.022947 788.824567,215.905064 793.258269,213.669266 C797.691971,211.433467 801.955082,208.496657 806.04773,204.858748 L802.97826,215.431369 C797.521396,219.902966 792.121455,224.601862 786.778276,229.528197 C781.435096,234.454533 776.319363,239.456583 771.430922,244.534499 C766.542481,249.612414 762.01411,254.7092 757.845672,259.82501 C753.677234,264.94082 750.077274,269.867082 747.045683,274.603943 C744.014092,279.340804 741.626749,283.850228 739.883584,288.132351 C738.140419,292.414473 737.26885,296.260747 737.26885,299.671287 C737.26885,304.597623 738.102525,308.538632 739.7699,311.494433 C741.437275,314.450235 743.54041,316.723894 746.079368,318.315479 C748.618325,319.907065 751.384611,320.968106 754.378307,321.498634 C757.372003,322.029163 760.157236,322.294423 762.734088,322.294423 C769.252009,322.294423 775.201418,321.17654 780.582492,318.940742 C785.963566,316.704944 790.832987,313.578662 795.190899,309.561804 C799.548811,305.544945 803.451926,300.732367 806.900361,295.123923 C810.348796,289.515479 813.418236,283.357652 816.108773,276.650257 C818.79931,269.942861 821.129811,262.74294 823.100345,255.050278 C825.07088,247.357615 826.776124,239.456649 828.21613,231.347143 C835.643528,226.799756 842.578189,222.100861 849.02032,217.250315 C851.748752,215.203991 854.533985,213.025067 857.376102,210.713479 C860.218218,208.401891 862.946609,206.014549 865.561357,203.551381 C868.176104,201.088213 870.563446,198.625082 872.723455,196.161914 C874.883464,193.698746 876.64555,191.292457 878.009766,188.942974 L872.552929,163.705104 C867.550803,170.905133 863.041379,176.911383 859.024521,181.724034 C855.007663,186.536684 851.369808,190.534535 848.110847,193.717706 C844.851887,196.900877 841.89613,199.439796 839.243488,201.334541 C836.590845,203.229285 834.127714,204.820847 831.854021,206.109273 C833.824555,193.225011 835.757166,181.174616 837.65191,169.957729 C838.409808,165.182973 839.205589,160.389342 840.039276,155.576691 C840.872964,150.76404 841.687692,146.197774 842.483484,141.877757 C843.279277,137.557739 844.018216,133.692518 844.700324,130.281978 C845.382432,126.871438 845.950847,124.180942 846.405586,122.210407 C846.632955,121.30093 846.746638,120.505149 846.746638,119.823041 C846.746638,117.625138 845.950857,116.014629 844.359272,114.991467 C842.767687,113.968305 840.797182,113.456732 838.447699,113.456732 C836.477165,113.456732 834.392977,113.79778 832.195073,114.479888 C829.99717,115.161997 827.894035,116.185143 825.885606,117.549359 C823.877177,118.913575 822.096144,120.599872 820.542453,122.608302 C818.988763,124.616731 817.908775,126.909337 817.302456,129.48619 L809.344569,162.909315 C809.04141,165.334588 808.37826,168.366134 807.355098,172.004043 C806.331936,175.641952 804.986687,179.166124 803.319312,182.576664 C801.651937,185.987204 799.681432,188.905067 797.407739,191.33034 C795.134046,193.755613 792.595126,194.968231 789.790904,194.968231 C788.047739,194.968231 786.607755,194.532446 785.470908,193.660864 C784.334062,192.789282 783.424598,191.652452 782.74249,190.250341 C782.060382,188.84823 781.586703,187.256669 781.321439,185.475609 C781.056175,183.694549 780.923544,181.856674 780.923544,179.96193 C780.923544,176.324021 781.226699,172.117751 781.833017,167.342995 C782.439335,162.568239 783.254063,157.698819 784.277225,152.734588 C785.300387,147.770358 786.475111,142.919884 787.801432,138.183023 C789.127754,133.446162 790.473002,129.334628 791.837218,125.848298 C792.291957,124.711452 792.614058,123.650411 792.803533,122.665144 C792.993007,121.679877 793.087743,120.770413 793.087743,119.936725 C793.087743,117.132503 792.140385,115.067263 790.245641,113.740942 C788.350896,112.414621 786.077237,111.75147 783.424595,111.75147 C780.317214,111.75147 777.134091,112.641987 773.87513,114.423046 C770.61617,116.204106 768.115145,118.799867 766.37198,122.210407 C764.022496,126.985163 761.938309,131.703006 760.119354,136.364078 C758.300399,141.025149 756.784627,145.856675 755.57199,150.8588 C754.359354,155.860926 753.430943,161.128236 752.78673,166.66089 C752.423281,169.782269 752.162359,173.072482 752.00396,176.531561 C750.871656,177.086834 749.749423,177.623975 748.63726,178.142984 Z M399.854442,194.968231 C402.431294,194.968231 404.93232,193.660877 407.357592,191.04613 C409.782865,188.431382 411.904947,185.134576 413.723902,181.155613 C415.542857,177.17665 417.001788,172.780908 418.10074,167.968257 C419.199692,163.155606 419.749159,158.551446 419.749159,154.155639 C419.749159,150.66931 419.483899,147.429345 418.953371,144.435649 C418.422842,141.441953 417.627061,138.846192 416.566005,136.648288 C415.504948,134.450384 414.140752,132.707246 412.473377,131.418819 C410.806002,130.130393 408.797603,129.48619 406.44812,129.48619 C403.340739,129.48619 400.384982,130.812491 397.58076,133.465133 C394.776538,136.117775 392.313407,139.509317 390.191293,143.63986 C388.06918,147.770403 386.401829,152.336669 385.189193,157.338794 C383.976557,162.34092 383.370247,167.153498 383.370247,171.776675 C383.370247,174.959846 383.673402,177.953497 384.27972,180.757719 C384.886038,183.56194 385.833396,186.006124 387.121823,188.090343 C388.410249,190.174562 390.115493,191.841912 392.237607,193.092444 C394.359721,194.342975 396.89864,194.968231 399.854442,194.968231 L399.854442,194.968231 L399.854442,194.968231 Z M606.873188,25.5789225 C604.447915,25.5789225 602.363727,26.3368089 600.620562,27.8526045 C598.877397,29.3684 597.228994,31.5283763 595.675304,34.3325981 C594.121613,37.13682 592.567946,40.5473088 591.014256,44.5641671 C589.460565,48.5810254 587.698479,53.0525553 585.727945,57.9788909 C584.515309,62.2989083 583.397426,66.7704382 582.374264,71.3936147 C581.351102,76.0167912 580.422691,80.6209512 579.589004,85.2062328 C578.755316,89.7915144 578.016377,94.3198858 577.372164,98.7914827 C576.727951,103.26308 576.178483,107.469349 575.723744,111.410418 C574.586898,120.732561 573.677434,129.902986 572.995326,138.92197 C574.662701,133.919845 576.481628,128.482009 578.452163,122.608302 C580.422697,116.734594 582.374254,110.936763 584.306894,105.214634 C586.239533,99.4925061 588.058461,94.0736182 589.763731,88.9578081 C591.469001,83.841998 592.890038,79.5030983 594.026884,75.9409787 C594.557413,74.2736035 595.315299,72.1894159 596.300566,69.6883532 C597.285833,67.1872905 598.346874,64.4967937 599.483721,61.6167821 C600.620568,58.7367705 601.757397,55.7431191 602.894244,52.6357382 C604.031091,49.5283573 605.073185,46.5347059 606.020557,43.6546943 C606.967929,40.7746827 607.744763,38.0841859 608.351081,35.5831232 C608.957399,33.0820605 609.260554,30.9599786 609.260554,29.2168136 C609.260554,26.7915407 608.464773,25.5789225 606.873188,25.5789225 L606.873188,25.5789225 L606.873188,25.5789225 Z M671.673124,187.692449 C672.582602,187.692449 673.586801,188.260864 674.685753,189.39771 C675.784705,190.534557 677.054165,191.78507 678.49417,193.149286 C679.934176,194.513502 681.601526,195.764014 683.496271,196.900861 C685.391015,198.037708 687.550992,198.606122 689.976265,198.606122 C692.932066,198.606122 695.37625,198.113496 697.308889,197.128229 C699.241528,196.142962 700.776248,194.835608 701.913095,193.206128 C703.049942,191.576647 703.845722,189.681931 704.300461,187.521923 C704.7552,185.361914 704.982566,183.107202 704.982566,180.757719 C704.982566,178.711395 704.849936,176.627207 704.584671,174.505093 C704.319407,172.382979 703.978358,170.355633 703.561514,168.422994 C703.144671,166.490354 702.689939,164.671427 702.197305,162.966157 C701.704672,161.260887 701.268887,159.801956 700.889938,158.589319 L671.673124,187.692449 L671.673124,187.692449 L671.673124,187.692449 Z M773.136184,297.681815 C775.9783,295.824966 778.593008,293.380782 780.980386,290.349191 C783.367764,287.3176 785.546688,283.869217 787.517222,280.003938 C789.487756,276.138659 791.230895,272.178703 792.746691,268.123949 C794.262486,264.069196 795.550893,260.10924 796.61195,256.243961 C797.673007,252.378682 798.506682,248.930299 799.113,245.898708 C796.157199,247.869242 793.1446,250.21869 790.075114,252.947122 C787.005628,255.675554 784.011977,258.612364 781.094071,261.75764 C778.176164,264.902916 775.409879,268.14288 772.795131,271.47763 C770.180384,274.812381 767.887777,278.014451 765.917243,281.083937 C763.946709,284.153423 762.393042,287.014444 761.256195,289.667086 C760.119348,292.319729 759.550934,294.517599 759.550934,296.260764 C759.550934,299.064986 761.066706,300.467076 764.098298,300.467076 C767.281468,300.467076 770.294067,299.538665 773.136184,297.681815 Z" id="Mocksy" sketch:type="MSShapeGroup"></path>
            </g>
        </g>
    </g>
</svg>